
<svg width="25" height="19" viewBox="0 0 25 19" fill="none" xmlns="http://www.w3.org/2000/svg">
<g clip-path="url(#clip0_20_93)">
<path d="M5.68184 18.7549V9.09568L2.68623 6.35515L0 4.83435V17.0503C0 17.9934 0.76416 18.7549 1.70459 18.7549H5.68184Z" fill="#4285F4"/>
<path d="M19.3181 18.7549H23.2954C24.2386 18.7549 25 17.9906 25 17.0503V4.83447L21.9574 6.57637L19.3181 9.0957V18.7549Z" fill="#34A853"/>
<path d="M5.68179 9.09568L5.27417 5.32156L5.68179 1.70935L12.5 6.82302L19.3181 1.70935L19.7741 5.12654L19.3181 9.09568L12.5 14.2094L5.68179 9.09568Z" fill="#EA4335"/>
<path d="M19.3181 1.70934V9.09567L25 4.83434V2.56159C25 0.453681 22.5937 -0.747979 20.9091 0.516181L19.3181 1.70934Z" fill="#FBBC04"/>
<path d="M0 4.83427L2.61318 6.79423L5.68184 9.0956V1.70927L4.09082 0.516103C2.40332 -0.748154 0 0.453603 0 2.56142V4.83417V4.83427Z" fill="#C5221F"/>
</g>
<defs>
<clipPath id="clip0_20_93">
<rect width="25" height="18.8477" fill="white"/>
</clipPath>
</defs>
</svg>
