
<svg width="25" height="25" viewBox="0 0 25 25" fill="none" xmlns="http://www.w3.org/2000/svg">
<g clip-path="url(#clip0_20_91)">
<path d="M21.3011 21.3015H17.5969V15.5004C17.5969 14.1171 17.5721 12.3363 15.6703 12.3363C13.741 12.3363 13.4458 13.8436 13.4458 15.3997V21.3011H9.74167V9.37178H13.2976V11.0021H13.3474C13.7033 10.3936 14.2176 9.89298 14.8354 9.55363C15.4533 9.21428 16.1516 9.04886 16.856 9.075C20.6104 9.075 21.3026 11.5445 21.3026 14.7572L21.3011 21.3015ZM5.56199 7.74121C4.37478 7.74141 3.41218 6.7791 3.41199 5.5919C3.41179 4.40469 4.374 3.44209 5.56121 3.4419C6.74841 3.4416 7.71101 4.40391 7.71121 5.59111C7.71131 6.16123 7.48494 6.70805 7.08188 7.11127C6.67883 7.51448 6.13211 7.74108 5.56199 7.74121ZM7.41414 21.3016H3.70603V9.37178H7.41404V21.3015L7.41414 21.3016ZM23.1477 0.00175849H1.8447C0.837866 -0.00956964 0.0121826 0.796973 -0.00012207 1.80381V23.1957C0.011792 24.203 0.837378 25.0104 1.8446 24.9998H23.1477C24.1571 25.0123 24.9859 24.205 24.9999 23.1957V1.80215C24.9855 0.79336 24.1566 -0.0130853 23.1477 9.83293e-05" fill="#0A66C2"/>
</g>
<defs>
<clipPath id="clip0_20_91">
<rect width="25" height="25" fill="white"/>
</clipPath>
</defs>
</svg>
