
<svg width="25" height="25" viewBox="0 0 25 25" fill="none" xmlns="http://www.w3.org/2000/svg">
<path d="M24.1151 14.5518C24.1072 14.5957 24.1017 14.6401 24.0934 14.6841L24.0506 14.4322C24.074 14.4715 24.0934 14.5123 24.1151 14.5519C24.2453 13.846 24.3112 13.1297 24.3119 12.4119C24.3119 10.8184 23.9999 9.27227 23.3835 7.81689C22.7888 6.41104 21.938 5.14844 20.8532 4.06445C19.77 2.98047 18.5065 2.12959 17.1015 1.53496C15.6465 0.919336 14.1005 0.607324 12.5069 0.607324C11.756 0.607324 11.0036 0.677832 10.2716 0.818359C10.27 0.81875 10.2681 0.81875 10.266 0.819141C10.3072 0.840918 10.3488 0.860352 10.3892 0.88291L10.1409 0.844043C10.1825 0.83623 10.2245 0.827441 10.266 0.819141C9.26172 0.285156 8.13203 0 6.98867 0C5.12207 0 3.36689 0.726856 2.04688 2.04727C0.727246 3.36729 0 5.12236 0 6.98906C0.000633675 8.17483 0.303243 9.3409 0.879297 10.3773C0.886816 10.3346 0.891992 10.2914 0.900293 10.2486L0.943066 10.4961C0.920898 10.4573 0.901465 10.4169 0.879297 10.3773C0.761804 11.0492 0.70234 11.7299 0.701563 12.4119C0.701563 14.0059 1.01357 15.5516 1.62998 17.0073C2.22383 18.4136 3.0751 19.6753 4.15869 20.7593C5.24346 21.8434 6.50527 22.6954 7.91191 23.2885C9.36699 23.9053 10.9134 24.2177 12.5069 24.2177C13.2006 24.2177 13.8958 24.1543 14.5743 24.034C14.5348 24.0118 14.4944 23.9916 14.454 23.9683L14.7062 24.0126C14.6627 24.0209 14.6188 24.0261 14.5744 24.034C15.6231 24.6275 16.8075 24.9396 18.0125 24.9398C19.8788 24.9398 21.6331 24.2141 22.9531 22.8934C24.2734 21.5741 25 19.8187 25 17.952C24.9994 16.7617 24.6948 15.5914 24.1151 14.5519V14.5518ZM12.554 19.6417C8.36016 19.6417 6.48389 17.5798 6.48389 16.0346C6.48389 15.2419 7.06904 14.6864 7.87549 14.6864C9.67021 14.6864 9.20537 17.2635 12.554 17.2635C14.2684 17.2635 15.2149 16.3326 15.2149 15.3801C15.2149 14.8072 14.9323 14.1721 13.8035 13.8938L10.0732 12.9626C7.06904 12.2092 6.52383 10.5852 6.52383 9.0585C6.52383 5.88887 9.5082 4.69873 12.3109 4.69873C14.8927 4.69873 17.9361 6.12559 17.9361 8.02715C17.9361 8.84199 17.2306 9.31582 16.4244 9.31582C14.8927 9.31582 15.1746 7.1957 12.0893 7.1957C10.5582 7.1957 9.71016 7.88906 9.71016 8.88115C9.71016 9.87139 10.9193 10.1877 11.9692 10.4268L14.7304 11.0396C17.7548 11.7135 18.5217 13.4793 18.5217 15.1425C18.5217 17.7184 16.5444 19.6417 12.554 19.6417ZM14.454 23.9683C14.4944 23.9917 14.5348 24.0118 14.5744 24.034C14.6188 24.0261 14.6627 24.0209 14.7062 24.0125L14.454 23.9683ZM24.0934 14.6841C24.1017 14.6401 24.1072 14.5958 24.1151 14.5519C24.0934 14.5122 24.0739 14.4715 24.0507 14.4322L24.0934 14.6841ZM0.900293 10.2486C0.891992 10.2914 0.886816 10.3346 0.879297 10.3773C0.901465 10.4169 0.920898 10.4573 0.943066 10.4961L0.900293 10.2486ZM10.3892 0.88291C10.3488 0.860352 10.3072 0.840918 10.2661 0.819141C10.2245 0.827441 10.1825 0.836133 10.1409 0.844043L10.3892 0.88291Z" fill="#00AFF0"/>
</svg>
