
<svg width="25" height="21" viewBox="0 0 25 21" fill="none" xmlns="http://www.w3.org/2000/svg">
<g clip-path="url(#clip0_20_99)">
<path d="M25 2.48534C24.0638 2.90006 23.0709 3.17229 22.0541 3.29296C23.1132 2.65819 23.9264 1.65302 24.3093 0.455359C23.3025 1.05281 22.201 1.47374 21.0523 1.69999C20.1167 0.703211 18.7838 0.0802612 17.3085 0.0802612C14.4759 0.0802612 12.1793 2.37675 12.1793 5.20917C12.1793 5.61122 12.2247 6.00262 12.3121 6.37811C8.04941 6.16415 4.27012 4.12225 1.74033 1.01913C1.29893 1.77665 1.046 2.6578 1.046 3.59764C1.046 5.37714 1.95156 6.94696 3.32773 7.86678C2.51323 7.84128 1.71665 7.62129 1.00449 7.22518C1.0042 7.24667 1.0042 7.26815 1.0042 7.28973C1.0042 9.77479 2.77217 11.8478 5.11846 12.319C4.36317 12.5244 3.57093 12.5545 2.80225 12.4069C3.45488 14.4446 5.34912 15.9274 7.59346 15.9689C5.83809 17.3445 3.62646 18.1645 1.22354 18.1645C0.809473 18.1645 0.40127 18.1402 0 18.0929C2.26982 19.5481 4.96582 20.3973 7.8623 20.3973C17.2966 20.3973 22.4555 12.5817 22.4555 5.80399C22.4555 5.58153 22.4506 5.36034 22.4406 5.14042C23.4448 4.41452 24.3114 3.51543 25 2.48534Z" fill="#55ACEE"/>
</g>
<defs>
<clipPath id="clip0_20_99">
<rect width="25" height="20.4102" fill="white"/>
</clipPath>
</defs>
</svg>
